<svg width="556" height="97" viewBox="0 0 556 97" fill="none" xmlns="http://www.w3.org/2000/svg">
<path d="M53.3497 30.381H70.5922C70.343 15.2159 57.8785 4.74573 38.9324 4.74573C20.2773 4.74573 6.60787 15.0497 6.69097 30.5057C6.64942 43.0533 15.4992 50.2411 29.8749 53.6896L39.1402 56.0163C48.4055 58.2599 53.5574 60.919 53.599 66.6527C53.5574 72.8849 47.6576 77.1229 38.517 77.1229C29.1686 77.1229 22.4378 72.8018 21.8561 64.2844H4.44736C4.90439 82.6903 18.0752 92.2049 38.7247 92.2049C59.4989 92.2049 71.7141 82.2748 71.7556 66.6942C71.7141 52.5263 61.0361 45.006 46.2449 41.6822L38.6001 39.854C31.2045 38.1506 25.0138 35.4084 25.1384 29.3008C25.1384 23.8164 29.9996 19.7862 38.8078 19.7862C47.4083 19.7862 52.6849 23.6917 53.3497 30.381Z" fill="#00ffff"/>
<path d="M115.359 92.2464C132.352 92.2464 143.03 82.2748 143.861 67.6083H127.158C126.12 74.4222 121.632 78.2447 115.566 78.2447C107.298 78.2447 101.939 71.3061 101.939 59.0909C101.939 47.0419 107.34 40.1449 115.566 40.1449C122.048 40.1449 126.203 44.4244 127.158 50.7812H143.861C143.113 36.0316 131.936 26.3508 115.276 26.3508C95.9141 26.3508 83.9482 39.7709 83.9482 59.3402C83.9482 78.7432 95.7063 92.2464 115.359 92.2464Z" fill="#00ffff"/>
<path d="M175.893 54.1051C175.934 45.8785 180.962 41.0589 188.191 41.0589C195.379 41.0589 199.617 45.6708 199.575 53.5234V91H217.275V50.3658C217.316 35.4084 208.508 26.3508 195.213 26.3508C185.532 26.3508 179.05 30.9212 176.142 38.4414H175.394V5.90908H158.193V91H175.893V54.1051Z" fill="#00ffff"/>
<path d="M263.038 92.2464C282.4 92.2464 294.449 78.9925 294.449 59.3402C294.449 39.5632 282.4 26.3508 263.038 26.3508C243.677 26.3508 231.628 39.5632 231.628 59.3402C231.628 78.9925 243.677 92.2464 263.038 92.2464ZM263.121 78.5355C254.189 78.5355 249.618 70.3505 249.618 59.2155C249.618 48.0806 254.189 39.854 263.121 39.854C271.888 39.854 276.458 48.0806 276.458 59.2155C276.458 70.3505 271.888 78.5355 263.121 78.5355Z" fill="#00ffff"/>
<path d="M337.792 92.2464C357.154 92.2464 369.203 78.9925 369.203 59.3402C369.203 39.5632 357.154 26.3508 337.792 26.3508C318.431 26.3508 306.382 39.5632 306.382 59.3402C306.382 78.9925 318.431 92.2464 337.792 92.2464ZM337.875 78.5355C328.942 78.5355 324.372 70.3505 324.372 59.2155C324.372 48.0806 328.942 39.854 337.875 39.854C346.642 39.854 351.212 48.0806 351.212 59.2155C351.212 70.3505 346.642 78.5355 337.875 78.5355Z" fill="#00ffff"/>
<path d="M401.411 5.90908H383.712V91H401.411V5.90908Z" fill="#00ffff"/>
<path d="M447.673 92.2464C463.462 92.2464 474.098 84.56 476.591 72.7187L460.221 71.6385C458.434 76.4996 453.864 79.0341 447.964 79.0341C439.114 79.0341 433.505 73.1758 433.505 63.6612V63.6197H476.965V58.7585C476.965 37.0703 463.836 26.3508 446.967 26.3508C428.187 26.3508 416.014 39.6878 416.014 59.3817C416.014 79.6158 428.021 92.2464 447.673 92.2464ZM433.505 52.6509C433.879 45.38 439.405 39.5632 447.258 39.5632C454.944 39.5632 460.263 45.0476 460.304 52.6509H433.505Z" fill="#00ffff"/>
<path d="M520.35 92.2464C539.711 92.2464 551.76 78.9925 551.76 59.3402C551.76 39.5632 539.711 26.3508 520.35 26.3508C500.988 26.3508 488.939 39.5632 488.939 59.3402C488.939 78.9925 500.988 92.2464 520.35 92.2464ZM520.433 78.5355C511.5 78.5355 506.93 70.3505 506.93 59.2155C506.93 48.0806 511.5 39.854 520.433 39.854C529.2 39.854 533.77 48.0806 533.77 59.2155C533.77 70.3505 529.2 78.5355 520.433 78.5355Z" fill="#00ffff"/>
<path fill-rule="evenodd" clip-rule="evenodd" d="M49.7275 34.381L49.3693 30.7766C49.1411 28.4805 48.1874 26.897 46.6927 25.8033C45.1018 24.6393 42.5472 23.7862 38.8078 23.7862C34.9597 23.7862 32.4581 24.6726 31.0304 25.7161C29.7112 26.6805 29.1384 27.8757 29.1384 29.3008V29.3416L29.1376 29.3824C29.1097 30.7466 29.6506 31.8064 31.2905 32.9159C33.1133 34.1491 35.9128 35.1303 39.4979 35.9561L39.5141 35.9598L47.1491 37.7856C54.8961 39.5296 61.9869 42.4556 67.2056 47.147C72.5597 51.9602 75.7315 58.4542 75.7556 66.6825L75.7556 66.6937L75.7556 66.7049C75.7318 75.6431 72.1619 83.2085 65.4814 88.4413C58.9115 93.5874 49.6962 96.2049 38.7247 96.2049C27.8476 96.2049 18.404 93.7056 11.5363 88.2872C4.54646 82.7725 0.702461 74.6077 0.448589 64.3837L0.346802 60.2844H25.5922L25.8468 64.0119C26.0619 67.1612 27.3432 69.2626 29.265 70.6724C31.3024 72.167 34.4061 73.1229 38.517 73.1229C42.5221 73.1229 45.4073 72.1879 47.1741 70.9495C48.8304 69.7884 49.5795 68.3423 49.5988 66.6539C49.5829 65.3225 49.1164 64.3756 47.5839 63.3366C45.7696 62.1066 42.7737 61.0118 38.1988 59.904L38.1824 59.9L28.9203 57.5741C21.3744 55.7614 14.8259 52.8702 10.1243 48.4125C5.29813 43.8367 2.67076 37.842 2.69093 30.5095C2.64771 21.4855 6.66343 13.9083 13.3139 8.68414C19.8966 3.5133 28.9034 0.745728 38.9324 0.745728C49.1187 0.745728 57.9292 3.56225 64.3067 8.78075C70.7417 14.0463 74.4479 21.5677 74.5917 30.3153L74.6585 34.381H49.7275ZM6.69097 30.5057C6.64942 43.0533 15.4992 50.2411 29.8749 53.6896L39.1402 56.0163C48.4055 58.2599 53.5574 60.919 53.599 66.6527C53.5574 72.8849 47.6576 77.1229 38.517 77.1229C29.1686 77.1229 22.4378 72.8018 21.8561 64.2844H4.44736C4.48172 65.6681 4.58792 67.0015 4.76376 68.2844C6.9269 84.0671 19.6275 92.2049 38.7247 92.2049C59.4989 92.2049 71.7141 82.2748 71.7556 66.6942C71.7141 52.5263 61.0361 45.006 46.2449 41.6822L38.6001 39.854C31.2045 38.1506 25.0138 35.4084 25.1384 29.3008C25.1384 23.8164 29.9996 19.7862 38.8078 19.7862C47.4083 19.7862 52.6849 23.6917 53.3497 30.381H70.5922C70.5697 29.0078 70.4469 27.673 70.2283 26.381C68.0324 13.4055 56.1628 4.74573 38.9324 4.74573C20.2773 4.74573 6.60787 15.0497 6.69097 30.5057ZM148.094 63.6083L147.854 67.8346C147.385 76.1191 144.099 83.3189 138.319 88.4252C132.558 93.5137 124.639 96.2464 115.359 96.2464C104.572 96.2464 95.6048 92.5128 89.3549 85.7938C83.1384 79.1106 79.9482 69.8405 79.9482 59.3402C79.9482 48.7463 83.1965 39.4568 89.4264 32.7785C95.6861 26.0683 104.627 22.3508 115.276 22.3508C124.373 22.3508 132.314 25.0005 138.14 29.999C144.001 35.0274 147.43 42.1887 147.856 50.5787L148.069 54.7812H123.715L123.203 51.3759C122.83 48.8986 121.882 47.1186 120.684 45.9832C119.523 44.8832 117.876 44.1449 115.566 44.1449C112.708 44.1449 110.503 45.2783 108.889 47.4712C107.177 49.7961 105.939 53.6017 105.939 59.0909C105.939 64.6798 107.173 68.5412 108.886 70.8949C110.496 73.1075 112.694 74.2447 115.566 74.2447C117.731 74.2447 119.382 73.5788 120.573 72.5074C121.777 71.4249 122.798 69.668 123.204 67.0055L123.722 63.6083H148.094ZM143.861 67.6083H127.158C126.12 74.4222 121.632 78.2447 115.566 78.2447C107.298 78.2447 101.939 71.3061 101.939 59.0909C101.939 47.0419 107.34 40.1449 115.566 40.1449C122.048 40.1449 126.203 44.4244 127.158 50.7812H143.861C143.791 49.4024 143.63 48.0678 143.382 46.7812C140.975 34.3062 130.379 26.3508 115.276 26.3508C95.9141 26.3508 83.9482 39.7709 83.9482 59.3402C83.9482 78.7432 95.7063 92.2464 115.359 92.2464C130.757 92.2464 140.97 84.0583 143.37 71.6083C143.618 70.3192 143.783 68.9844 143.861 67.6083ZM199.575 53.5234C199.617 45.6708 195.379 41.0589 188.191 41.0589C180.962 41.0589 175.934 45.8785 175.893 54.1051V91H158.193V5.90908H175.394V38.4414H176.142C176.952 36.3476 178.038 34.4825 179.394 32.881C182.908 28.7305 188.227 26.3508 195.213 26.3508C208.508 26.3508 217.316 35.4084 217.275 50.3658V91H199.575V53.5234ZM179.394 27.3447V1.90908H154.193V95H179.893V54.1167C179.911 50.8249 180.91 48.6308 182.218 47.2818C183.519 45.9403 185.487 45.0589 188.191 45.0589C190.901 45.0589 192.595 45.9015 193.643 47.0464C194.732 48.2367 195.592 50.2714 195.575 53.5023L195.575 53.5128V95H221.275L221.275 50.3769L221.275 50.3658M288.917 85.9049C282.63 92.5817 273.67 96.2464 263.038 96.2464C252.406 96.2464 243.446 92.5817 237.16 85.9049C230.9 79.2557 227.628 69.9802 227.628 59.3402C227.628 48.6438 230.897 39.346 237.159 32.6885C243.448 26.0031 252.41 22.3508 263.038 22.3508C273.667 22.3508 282.629 26.0031 288.918 32.6885C295.18 39.346 298.449 48.6438 298.449 59.3402C298.449 69.9802 295.177 79.2557 288.917 85.9049ZM256.363 70.8545C257.932 73.2432 260.09 74.5355 263.121 74.5355C266.041 74.5355 268.162 73.2697 269.725 70.8687C271.4 68.2964 272.458 64.3148 272.458 59.2155C272.458 54.1164 271.4 50.1218 269.722 47.537C268.155 45.1225 266.032 43.854 263.121 43.854C260.099 43.854 257.94 45.1491 256.366 47.5512C254.677 50.1291 253.618 54.1153 253.618 59.2155C253.618 64.316 254.677 68.289 256.363 70.8545ZM363.67 85.9049C357.384 92.5817 348.424 96.2464 337.792 96.2464C327.16 96.2464 318.2 92.5817 311.914 85.9049C305.654 79.2557 302.382 69.9802 302.382 59.3402C302.382 48.6438 305.65 39.346 311.913 32.6885C318.202 26.0031 327.164 22.3508 337.792 22.3508C348.421 22.3508 357.383 26.0031 363.672 32.6885C369.934 39.346 373.203 48.6438 373.203 59.3402C373.203 69.9802 369.931 79.2557 363.67 85.9049ZM331.117 70.8545C332.686 73.2432 334.844 74.5355 337.875 74.5355C340.794 74.5355 342.916 73.2697 344.479 70.8687C346.154 68.2964 347.212 64.3148 347.212 59.2155C347.212 54.1164 346.154 50.1218 344.476 47.537C342.909 45.1225 340.786 43.854 337.875 43.854C334.853 43.854 332.693 45.1491 331.12 47.5512C329.431 50.1291 328.372 54.1153 328.372 59.2155C328.372 64.316 329.431 68.289 331.117 70.8545ZM405.411 1.90908V95H379.712V1.90908H405.411ZM383.712 5.90908H401.411V91H383.712V5.90908ZM481.455 69.031L480.505 73.5428C477.516 87.7396 464.785 96.2464 447.673 96.2464C436.968 96.2464 427.935 92.7841 421.588 86.1717C415.26 79.5792 412.014 70.2847 412.014 59.3817C412.014 48.7135 415.321 39.4209 421.519 32.7569C427.744 26.0639 436.585 22.3508 446.967 22.3508C456.247 22.3508 464.84 25.3127 471.12 31.5932C477.415 37.8881 480.965 47.0929 480.965 58.7585V67.6197H460.068L481.455 69.031ZM457.436 67.6197L456.466 70.2586C455.42 73.1065 452.709 75.0341 447.964 75.0341C444.451 75.0341 441.956 73.8953 440.323 72.1679C439.285 71.0694 438.441 69.5678 437.955 67.6197H457.436ZM433.863 67.6197C435.228 74.7741 440.418 79.0341 447.964 79.0341C453.864 79.0341 458.434 76.4996 460.221 71.6385L476.591 72.7187C476.303 74.0861 475.907 75.3981 475.406 76.6493C471.573 86.2327 461.639 92.2464 447.673 92.2464C428.021 92.2464 416.014 79.6158 416.014 59.3817C416.014 39.6879 428.187 26.3508 446.967 26.3508C463.836 26.3508 476.965 37.0703 476.965 58.7585V63.6197H433.505V63.6612C433.505 65.0623 433.627 66.3842 433.863 67.6197ZM433.505 52.6509H460.304C460.296 51.2371 460.106 49.8966 459.752 48.6509C458.203 43.1976 453.515 39.5632 447.258 39.5632C440.914 39.5632 436.089 43.359 434.272 48.6509C433.839 49.9099 433.577 51.2535 433.505 52.6509ZM438.603 48.6509H455.52C455.089 47.6386 454.501 46.7739 453.804 46.0683C452.317 44.5653 450.118 43.5632 447.258 43.5632C443.279 43.5632 440.171 45.5924 438.603 48.6509ZM546.228 85.9049C539.942 92.5817 530.982 96.2464 520.35 96.2464C509.718 96.2464 500.758 92.5817 494.472 85.9049C488.212 79.2557 484.939 69.9802 484.939 59.3402C484.939 48.6438 488.208 39.346 494.47 32.6885C500.759 26.0031 509.721 22.3508 520.35 22.3508C530.979 22.3508 539.941 26.0031 546.229 32.6885C552.492 39.346 555.76 48.6438 555.76 59.3402C555.76 69.9802 552.488 79.2557 546.228 85.9049ZM513.674 70.8545C515.244 73.2432 517.402 74.5355 520.433 74.5355C523.352 74.5355 525.474 73.2697 527.037 70.8687C528.712 68.2964 529.77 64.3148 529.77 59.2155C529.77 54.1164 528.712 50.1218 527.034 47.537C525.467 45.1225 523.344 43.854 520.433 43.854C517.41 43.854 515.251 45.1491 513.677 47.5512C511.989 50.1291 510.93 54.1153 510.93 59.2155C510.93 64.316 511.989 68.289 513.674 70.8545ZM294.449 59.3402C294.449 78.9925 282.4 92.2464 263.038 92.2464C243.677 92.2464 231.628 78.9925 231.628 59.3402C231.628 39.5632 243.677 26.3508 263.038 26.3508C282.4 26.3508 294.449 39.5632 294.449 59.3402ZM249.618 59.2155C249.618 70.3505 254.189 78.5355 263.121 78.5355C271.888 78.5355 276.458 70.3505 276.458 59.2155C276.458 48.0806 271.888 39.854 263.121 39.854C254.189 39.854 249.618 48.0806 249.618 59.2155ZM369.203 59.3402C369.203 78.9925 357.154 92.2464 337.792 92.2464C318.431 92.2464 306.382 78.9925 306.382 59.3402C306.382 39.5632 318.431 26.3508 337.792 26.3508C357.154 26.3508 369.203 39.5632 369.203 59.3402ZM324.372 59.2155C324.372 70.3505 328.942 78.5355 337.875 78.5355C346.642 78.5355 351.212 70.3505 351.212 59.2155C351.212 48.0806 346.642 39.854 337.875 39.854C328.942 39.854 324.372 48.0806 324.372 59.2155ZM551.76 59.3402C551.76 78.9925 539.711 92.2464 520.35 92.2464C500.988 92.2464 488.939 78.9925 488.939 59.3402C488.939 39.5632 500.988 26.3508 520.35 26.3508C539.711 26.3508 551.76 39.5632 551.76 59.3402ZM506.93 59.2155C506.93 70.3505 511.5 78.5355 520.433 78.5355C529.2 78.5355 533.77 70.3505 533.77 59.2155C533.77 48.0806 529.2 39.854 520.433 39.854C511.5 39.854 506.93 48.0806 506.93 59.2155Z" fill="#B3F5FF"/>
</svg>
